inDegrees=no
num_controls=7
num_derivatives=13
num_iterations=148
num_multipliers=7
num_parameters=0
num_slacks=7
num_states=26
objective=5.531458
objective_accelerations=0.408950
objective_balance=0.045250
objective_effort=0.409407
objective_height=4.643460
objective_ligament=0.024391
solver_duration=1545.287691
status=Solve_Succeeded
success=true
DataType=double
version=3
OpenSimVersion=4.4-2022-07-23-0e9fedc
endheader
time	/jointset/ground_pelvis/pelvis_tilt/value	/jointset/ground_pelvis/pelvis_tx/value	/jointset/ground_pelvis/pelvis_ty/value	/jointset/hip_l/hip_flexion_l/value	/jointset/hip_l/hip_adduction_l/value	/jointset/hip_l/hip_rotation_l/value	/jointset/back/lumbar_extension/value	/jointset/patellofemoral_l/patellar_flexion_l/value	/jointset/knee_l/knee_flexion_l/value	/jointset/knee_l/knee_adduction_l/value	/jointset/knee_l/knee_rotation_l/value	/jointset/ankle_l/ankle_angle_l/value	/jointset/subtalar_l/subtalar_angle_l/value	/jointset/ground_pelvis/pelvis_tilt/speed	/jointset/ground_pelvis/pelvis_tx/speed	/jointset/ground_pelvis/pelvis_ty/speed	/jointset/hip_l/hip_flexion_l/speed	/jointset/hip_l/hip_adduction_l/speed	/jointset/hip_l/hip_rotation_l/speed	/jointset/back/lumbar_extension/speed	/jointset/patellofemoral_l/patellar_flexion_l/speed	/jointset/knee_l/knee_flexion_l/speed	/jointset/knee_l/knee_adduction_l/speed	/jointset/knee_l/knee_rotation_l/speed	/jointset/ankle_l/ankle_angle_l/speed	/jointset/subtalar_l/subtalar_angle_l/speed	/forceset/tau_hip_flexion_l	/forceset/tau_hip_adduction_l	/forceset/tau_hip_rotation_l	/forceset/tau_knee_flexion_l	/forceset/tau_ankle_angle_l	/forceset/tau_subtalar_angle_l	/forceset/tau_lumbar_extension	lambda_cid13_p0	lambda_cid13_p1	lambda_cid13_p2	lambda_cid13_p3	lambda_cid13_p4	lambda_cid13_p5	lambda_cid14_p0	/jointset/ground_pelvis/pelvis_tilt/accel	/jointset/ground_pelvis/pelvis_tx/accel	/jointset/ground_pelvis/pelvis_ty/accel	/jointset/hip_l/hip_flexion_l/accel	/jointset/hip_l/hip_adduction_l/accel	/jointset/hip_l/hip_rotation_l/accel	/jointset/back/lumbar_extension/accel	/jointset/patellofemoral_l/patellar_flexion_l/accel	/jointset/knee_l/knee_flexion_l/accel	/jointset/knee_l/knee_adduction_l/accel	/jointset/knee_l/knee_rotation_l/accel	/jointset/ankle_l/ankle_angle_l/accel	/jointset/subtalar_l/subtalar_angle_l/accel	gamma_cid13_p0	gamma_cid13_p1	gamma_cid13_p2	gamma_cid13_p3	gamma_cid13_p4	gamma_cid13_p5	gamma_cid14_p0
0.5	-0.05125416154051531	-0.01804434064741062	0.8347551815175415	0.7845271385980482	-0.334593569986456	-0.09818585274244554	-0.7736422076274041	0.8305937096041418	0.8305937096041685	-0.1292704895519992	-0.1745246365644672	0.1539433825261644	0.009699071232387495	-0.01803931217077395	-0.1218856396941426	-0.3081013596378414	1.209711114508389	-0.04642333707289337	0.5199380429240724	-0.8451429157927722	1.539041268753401	1.539041268753545	0.09975985813533013	-9.474749153052037e-06	0.454321147060665	0.1026636467493415	-0.2363866379036422	0.02427207133304693	-0.001522925734208336	-0.2345395388162822	0.0584444400880809	0.04697829310283502	0.3050489531192057	-25.33380824946661	-18.35374706540255	5.198127986844313	-5.221549083081561	-702.2598212319801	-79.6036142675664	-13.35032974381596	0.1515183618404483	0.5056904284660441	-0.1350231586435928	-1.257013596625852	0.3040828576223976	-0.449126867079935	1.611525420569298	-1.226492609972372	-1.226492609972312	-0.1646353360105454	0.0157206177201883	-0.1650458849054627	0.3345376514068153	-8.061701464396785e-08	-5.053844352862579e-07	2.707397685739e-07	-4.433418429644914e-08	-9.155430888587851e-08	-2.354739893782058e-07	-8.985045406704842e-08
0.51	-0.05142702883070012	-0.01923786736118598	0.8316680855430491	0.7965596174814064	-0.335043082342887	-0.0930098565060781	-0.7820119892417977	0.845920448960658	0.8459204489606809	-0.1282818102946355	-0.1745246259725887	0.1584774222012782	0.01074162983926907	-0.01652921424140773	-0.1168153708758646	-0.3092476271607112	1.196606106907129	-0.04349130528106927	0.5151942090131928	-0.8287164044784771	1.526082019437999	1.526082019438077	0.09796372918232268	7.116871601598321e-06	0.452415231932735	0.1058159972833666	-0.2414552196638067	0.0249279180688786	-0.001604148851198362	-0.2375140099956509	0.05661036527215123	0.0471674406324642	0.3104371847706275	-26.11129503694044	-18.27366164672259	5.155547633920393	-4.965123991558086	-705.7667805513133	-79.48964285841683	-12.76782765423884	0.1514890326463627	0.5083366785778294	-0.09391482919420341	-1.364034523597101	0.2859445833683485	-0.497142600742469	1.672764378123259	-1.364311065712371	-1.364311065722347	-0.189008371816767	-0.005990915327762088	-0.2141138598042847	0.3008157159839729	-7.814997611619492e-08	-4.477164809752502e-07	2.852872730971865e-07	-3.720554679943795e-08	-8.530007555905432e-08	-2.161566875283919e-07	-8.580684856071233e-08
0.52	-0.05158464843676179	-0.02038056307276486	0.8285716296373111	0.8084556882524085	-0.3354636381327171	-0.08788332479835122	-0.7902145956647956	0.8611108618293388	0.8611108618293631	-0.1273114736661538	-0.1745245733344375	0.1629902528184989	0.01181475834380771	-0.01498977534556021	-0.11171943925485	-0.3099733458869992	1.182429492037032	-0.0406320237530076	0.5100451371962925	-0.8117078775136259	1.511775971187066	1.511775971187077	0.09609133235447689	-1.065490876341332e-06	0.450079335482105	0.1087776262807369	-0.2465238014239578	0.02558376480470969	-0.001685371968015266	-0.240488481175027	0.05477629045621938	0.04735658816208938	0.3158254164220615	-26.89169281985271	-18.19353355876867	5.113494328058912	-4.736760334030584	-709.3437974643972	-79.40333662246329	-12.18282385749758	0.1573865551367598	0.5108229890133901	-0.05091339932721681	-1.471335050393339	0.2895328048699143	-0.5301744482840702	1.727928550680556	-1.49585239707863	-1.495852397078604	-0.179888910978221	0.01076582107364623	-0.251042149445457	0.2963933440758246	-7.655435639197693e-08	-3.904953252727881e-07	3.055572042476844e-07	-2.895641553793914e-08	-8.090493003041685e-08	-1.976250853624044e-07	-8.245298842986828e-08
0.53	-0.05172674215546493	-0.02147222631218685	0.825470028577904	0.8202047882326704	-0.335855927752755	-0.08281010027227573	-0.7982443312968472	0.8761516196944168	0.8761516196944287	-0.1263602076500218	-0.1745245393462874	0.167477628010173	0.01291659539499103	-0.01342415533218443	-0.1066141154468609	-0.3102752541009215	1.167221690816038	-0.03783675298723262	0.5045318427549975	-0.7941559611000615	1.496161494359316	1.496161494359427	0.09416011169633456	5.037197010910256e-06	0.4473272486900528	0.1115593925981356	-0.251418035733329	0.02618638430861527	-0.001770957991169907	-0.243450682140826	0.05282970804590235	0.04748770799190644	0.3210221684912112	-27.70732084052357	-18.07899700417456	5.062484292234521	-4.412394745726433	-712.8315460886839	-79.28007632255878	-11.5964823802461	0.1568648860004354	0.5102461293965522	-0.009103467654896912	-1.570832290732797	0.2728836875184935	-0.5721706933630117	1.781316356323606	-1.626345307850423	-1.626345307835379	-0.2000505843417281	-0.004831772686515625	-0.2975718066987539	0.2645299049447407	-7.277588745082023e-08	-3.310773506994083e-07	3.155858223073988e-07	-2.151166308344341e-08	-7.489291723760502e-08	-1.755278625107681e-07	-7.749706583563245e-08
0.54	-0.05185303664172396	-0.02251286450298809	0.8223675536493119	0.8317967442741656	-0.3362205927701151	-0.07779406144088807	-0.8060960491308372	0.8910298127947767	0.891029812794768	-0.1254283162286826	-0.1745245171843228	0.171935426361402	0.01404534243522301	-0.01182992885629471	-0.1015144295307025	-0.3101481197240508	1.151000704283834	-0.03510710321795939	0.498607998261269	-0.7761043179013185	1.479263018242478	1.47926301824269	0.09221641339380843	-3.430728412684263e-06	0.4441639673934548	0.1141596240904475	-0.2563122700427046	0.02678900381248639	-0.001856544014205514	-0.2464128831066354	0.05088312563557289	0.04761882782167663	0.3262189205603667	-28.52653202522949	-17.96423198707614	5.011893919852857	-4.113680412527557	-716.3969291799747	-79.18520224230781	-11.01002087517211	0.1631078476396005	0.50969541064728	0.03489511883139962	-1.673972112635353	0.2764086055695736	-0.6122844587707801	1.827873907716308	-1.752652254896174	-1.752652254896189	-0.1823844398549837	0.007851698411468372	-0.3332810503546275	0.2600863790584775	-6.658235129092279e-08	-2.692288531199068e-07	3.142836258836932e-07	-1.495686164946172e-08	-6.709203002485558e-08	-1.494856976239457e-07	-7.076864860104826e-08
